<?xml version="1.0" encoding="UTF-8" standalone="no"?>
<!DOCTYPE svg PUBLIC "-//W3C//DTD SVG 1.1//EN" "http://www.w3.org/Graphics/SVG/1.1/DTD/svg11.dtd">
<svg width="100%" height="100%" viewBox="0 0 171 124" version="1.1" xmlns="http://www.w3.org/2000/svg" xmlns:xlink="http://www.w3.org/1999/xlink" xml:space="preserve" xmlns:serif="http://www.serif.com/" style="fill-rule:evenodd;clip-rule:evenodd;stroke-linecap:square;stroke-miterlimit:1.5;">
    <g transform="matrix(1,0,0,1,-1352.32,-24.2563)">
        <g transform="matrix(1,0,0,1,1335.77,0)">
            <g transform="matrix(0.526842,0,0,0.526842,-1139.96,29.5482)">
                <path d="M2351.56,214.729C2324.39,203.262 2301.29,186.251 2294.27,147.367C2289.85,109.66 2305.36,73.157 2366.91,39.437C2408.49,16.581 2432.12,24.251 2441.02,39.437C2481.24,108.103 2261.72,147.382 2273.64,49.697C2275.79,32.122 2294.59,-4.769 2351.56,-1.149" style="fill:none;stroke:rgb(223,228,231);stroke-width:2.28px;stroke-dasharray:4.56,6.83,6.83,6.83;"/>
            </g>
        </g>
        <g transform="matrix(1,0,0,1,1335.77,0)">
            <g transform="matrix(3.5147e-17,0.573994,-0.423091,2.59068e-17,43.3825,-700.64)">
                <path d="M1299.37,52.562L1304.79,63.4L1293.95,63.4L1299.37,52.562Z" style="fill:rgb(228,232,234);"/>
            </g>
        </g>
        <g transform="matrix(1,0,0,1,1335.77,0)">
            <g transform="matrix(0.440823,0,0,0.440823,-539.786,21.355)">
                <path d="M1346.6,12.866L1346.6,9.156C1346.6,8.301 1347.29,7.608 1348.15,7.608C1348.15,7.608 1348.15,7.608 1348.15,7.608C1349,7.608 1349.69,8.301 1349.69,9.156L1349.69,12.866L1353.4,12.866C1354.26,12.866 1354.95,13.559 1354.95,14.414C1354.95,14.414 1354.95,14.415 1354.95,14.415C1354.95,15.27 1354.26,15.963 1353.4,15.963L1349.69,15.963L1349.69,19.673C1349.69,20.528 1349,21.221 1348.15,21.221C1348.15,21.221 1348.15,21.221 1348.15,21.221C1347.29,21.221 1346.6,20.528 1346.6,19.673L1346.6,15.963L1342.89,15.963C1342.03,15.963 1341.34,15.27 1341.34,14.415C1341.34,14.415 1341.34,14.414 1341.34,14.414C1341.34,13.559 1342.03,12.866 1342.89,12.866L1346.6,12.866Z" style="fill:rgb(228,232,234);"/>
            </g>
        </g>
        <g transform="matrix(1,0,0,1,1335.77,0)">
            <g transform="matrix(3.5147e-17,0.573994,-0.423091,2.59068e-17,180.031,-655.532)">
                <path d="M1299.37,52.562L1304.79,63.4L1293.95,63.4L1299.37,52.562Z" style="fill:rgb(228,232,234);"/>
            </g>
        </g>
        <g transform="matrix(1,0,0,1,1335.77,0)">
            <g transform="matrix(0.618132,0,0,0.618132,-784.609,3.71868)">
                <path d="M1357.91,139.775L1357.91,135.709C1357.91,135.141 1358.37,134.68 1358.94,134.68C1358.94,134.68 1358.94,134.68 1358.94,134.68C1359.51,134.68 1359.97,135.141 1359.97,135.709L1359.97,139.775L1364.04,139.775C1364.61,139.775 1365.07,140.235 1365.07,140.804C1365.07,140.804 1365.07,140.804 1365.07,140.805C1365.07,141.373 1364.61,141.834 1364.04,141.834L1359.97,141.834L1359.97,145.899C1359.97,146.468 1359.51,146.928 1358.94,146.928C1358.94,146.928 1358.94,146.928 1358.94,146.928C1358.37,146.928 1357.91,146.468 1357.91,145.899L1357.91,141.834L1353.85,141.834C1353.28,141.834 1352.82,141.373 1352.82,140.805C1352.82,140.804 1352.82,140.804 1352.82,140.804C1352.82,140.235 1353.28,139.775 1353.85,139.775L1357.91,139.775Z" style="fill:rgb(228,232,234);"/>
            </g>
        </g>
        <g transform="matrix(1,0,0,1,1335.77,0)">
            <g transform="matrix(0.618132,0,0,0.618132,-679.675,-42.0548)">
                <path d="M1357.91,139.775L1357.91,135.709C1357.91,135.141 1358.37,134.68 1358.94,134.68C1358.94,134.68 1358.94,134.68 1358.94,134.68C1359.51,134.68 1359.97,135.141 1359.97,135.709L1359.97,139.775L1364.04,139.775C1364.61,139.775 1365.07,140.235 1365.07,140.804C1365.07,140.804 1365.07,140.804 1365.07,140.805C1365.07,141.373 1364.61,141.834 1364.04,141.834L1359.97,141.834L1359.97,145.899C1359.97,146.468 1359.51,146.928 1358.94,146.928C1358.94,146.928 1358.94,146.928 1358.94,146.928C1358.37,146.928 1357.91,146.468 1357.91,145.899L1357.91,141.834L1353.85,141.834C1353.28,141.834 1352.82,141.373 1352.82,140.805C1352.82,140.804 1352.82,140.804 1352.82,140.804C1352.82,140.235 1353.28,139.775 1353.85,139.775L1357.91,139.775Z" style="fill:rgb(228,232,234);"/>
            </g>
        </g>
        <g transform="matrix(1,0,0,1,1335.77,0)">
            <g id="Stroke-6-Copy" transform="matrix(1.02021,0,0,1.02021,-80.4292,140.843)">
                <path d="M184.6,2.6C184.6,3.926 183.525,5 182.199,5C180.874,5 179.8,3.926 179.8,2.6C179.8,1.274 180.874,0.2 182.199,0.2C183.525,0.2 184.6,1.274 184.6,2.6Z" style="fill:none;fill-rule:nonzero;stroke:rgb(232,235,237);stroke-width:1px;stroke-linecap:butt;stroke-miterlimit:4;"/>
            </g>
        </g>
        <g transform="matrix(1,0,0,1,1335.77,0)">
            <g transform="matrix(0.526842,0,0,0.526842,-1069.35,45.7971)">
                <g transform="matrix(1,0,0,0.969312,0,2.09364)">
                    <path d="M2383.48,37.962C2383.48,35.9 2382.68,33.923 2381.27,32.466C2379.86,31.008 2377.94,30.189 2375.94,30.189C2346.31,30.189 2237.93,30.189 2208.29,30.189C2206.29,30.189 2204.38,31.008 2202.96,32.466C2201.55,33.923 2200.76,35.9 2200.76,37.962C2200.76,44.528 2200.76,53.885 2200.76,60.451C2200.76,62.512 2201.55,64.489 2202.96,65.947C2204.38,67.404 2206.29,68.223 2208.29,68.223C2237.93,68.223 2346.31,68.223 2375.94,68.223C2377.94,68.223 2379.86,67.404 2381.27,65.947C2382.68,64.489 2383.48,62.512 2383.48,60.451C2383.48,53.885 2383.48,44.528 2383.48,37.962Z" style="fill:rgb(241,245,247);"/>
                    <clipPath id="_clip1">
                        <path d="M2383.48,37.962C2383.48,35.9 2382.68,33.923 2381.27,32.466C2379.86,31.008 2377.94,30.189 2375.94,30.189C2346.31,30.189 2237.93,30.189 2208.29,30.189C2206.29,30.189 2204.38,31.008 2202.96,32.466C2201.55,33.923 2200.76,35.9 2200.76,37.962C2200.76,44.528 2200.76,53.885 2200.76,60.451C2200.76,62.512 2201.55,64.489 2202.96,65.947C2204.38,67.404 2206.29,68.223 2208.29,68.223C2237.93,68.223 2346.31,68.223 2375.94,68.223C2377.94,68.223 2379.86,67.404 2381.27,65.947C2382.68,64.489 2383.48,62.512 2383.48,60.451C2383.48,53.885 2383.48,44.528 2383.48,37.962Z"/>
                    </clipPath>
                    <g clip-path="url(#_clip1)">
                        <g transform="matrix(1,0,0,1,-114.239,-26.8565)">
                            <path d="M2383.48,44.942C2383.48,36.794 2377.08,30.189 2369.18,30.189C2335.06,30.189 2249.18,30.189 2215.06,30.189C2207.16,30.189 2200.76,36.794 2200.76,44.942C2200.76,47.741 2200.76,50.671 2200.76,53.47C2200.76,61.618 2207.16,68.223 2215.06,68.223C2250.64,68.223 2342.48,68.223 2373.26,68.223C2375.97,68.223 2378.57,67.112 2380.48,65.135C2382.4,63.157 2383.48,60.476 2383.48,57.679C2383.48,53.74 2383.48,49.191 2383.48,44.942Z" style="fill:rgb(223,230,235);"/>
                        </g>
                    </g>
                    <path d="M2383.48,37.962C2383.48,35.9 2382.68,33.923 2381.27,32.466C2379.86,31.008 2377.94,30.189 2375.94,30.189C2346.31,30.189 2237.93,30.189 2208.29,30.189C2206.29,30.189 2204.38,31.008 2202.96,32.466C2201.55,33.923 2200.76,35.9 2200.76,37.962C2200.76,44.528 2200.76,53.885 2200.76,60.451C2200.76,62.512 2201.55,64.489 2202.96,65.947C2204.38,67.404 2206.29,68.223 2208.29,68.223C2237.93,68.223 2346.31,68.223 2375.94,68.223C2377.94,68.223 2379.86,67.404 2381.27,65.947C2382.68,64.489 2383.48,62.512 2383.48,60.451C2383.48,53.885 2383.48,44.528 2383.48,37.962Z" style="fill:none;stroke:rgb(129,143,151);stroke-width:2.31px;"/>
                </g>
                <g transform="matrix(1.05914,0,0,1.05914,-130.934,-3.29087)">
                    <circle cx="2219.53" cy="50.064" r="5.581" style="fill:rgb(208,204,234);"/>
                </g>
                <path d="M2358.69,49.788C2358.69,47.853 2357.12,46.284 2355.19,46.284C2337.64,46.284 2259.48,46.284 2241.93,46.284C2239.99,46.284 2238.43,47.853 2238.43,49.788C2238.43,49.789 2238.43,49.79 2238.43,49.791C2238.43,51.726 2239.99,53.295 2241.93,53.295C2259.48,53.295 2337.64,53.295 2355.19,53.295C2357.12,53.295 2358.69,51.726 2358.69,49.791C2358.69,49.79 2358.69,49.789 2358.69,49.788Z" style="fill:rgb(179,191,197);"/>
            </g>
        </g>
        <g transform="matrix(1,0,0,1,1335.77,0)">
            <g transform="matrix(0.526842,0,0,0.510675,-1107.87,84.4459)">
                <path d="M2383.48,37.962C2383.48,35.9 2382.68,33.923 2381.27,32.466C2379.86,31.008 2377.94,30.189 2375.94,30.189C2346.31,30.189 2237.93,30.189 2208.29,30.189C2206.29,30.189 2204.38,31.008 2202.96,32.466C2201.55,33.923 2200.76,35.9 2200.76,37.962C2200.76,44.528 2200.76,53.885 2200.76,60.451C2200.76,62.512 2201.55,64.489 2202.96,65.947C2204.38,67.404 2206.29,68.223 2208.29,68.223C2237.93,68.223 2346.31,68.223 2375.94,68.223C2377.94,68.223 2379.86,67.404 2381.27,65.947C2382.68,64.489 2383.48,62.512 2383.48,60.451C2383.48,53.885 2383.48,44.528 2383.48,37.962Z" style="fill:white;stroke:rgb(129,143,151);stroke-width:2.31px;"/>
            </g>
        </g>
        <g transform="matrix(1,0,0,1,1335.77,0)">
            <g transform="matrix(0.558,0,0,0.558,-1176.85,81.6091)">
                <circle cx="2219.53" cy="50.064" r="5.581" style="fill:rgb(143,237,201);"/>
            </g>
        </g>
        <g transform="matrix(1,0,0,1,1335.77,0)">
            <g transform="matrix(0.526842,0,0,0.526842,-1107.87,83.3429)">
                <path d="M2358.69,49.788C2358.69,47.853 2357.12,46.284 2355.19,46.284C2337.64,46.284 2259.48,46.284 2241.93,46.284C2239.99,46.284 2238.43,47.853 2238.43,49.788C2238.43,49.789 2238.43,49.79 2238.43,49.791C2238.43,51.726 2239.99,53.295 2241.93,53.295C2259.48,53.295 2337.64,53.295 2355.19,53.295C2357.12,53.295 2358.69,51.726 2358.69,49.791C2358.69,49.79 2358.69,49.789 2358.69,49.788Z" style="fill:rgb(179,191,197);"/>
            </g>
        </g>
        <g transform="matrix(1,0,0,1,1335.77,0)">
            <g transform="matrix(0.526842,0,0,0.510675,-1132.45,30.6512)">
                <path d="M2383.48,37.962C2383.48,35.9 2382.68,33.923 2381.27,32.466C2379.86,31.008 2377.94,30.189 2375.94,30.189C2346.31,30.189 2237.93,30.189 2208.29,30.189C2206.29,30.189 2204.38,31.008 2202.96,32.466C2201.55,33.923 2200.76,35.9 2200.76,37.962C2200.76,44.528 2200.76,53.885 2200.76,60.451C2200.76,62.512 2201.55,64.489 2202.96,65.947C2204.38,67.404 2206.29,68.223 2208.29,68.223C2237.93,68.223 2346.31,68.223 2375.94,68.223C2377.94,68.223 2379.86,67.404 2381.27,65.947C2382.68,64.489 2383.48,62.512 2383.48,60.451C2383.48,53.885 2383.48,44.528 2383.48,37.962Z" style="fill:white;stroke:rgb(129,143,151);stroke-width:2.31px;"/>
            </g>
        </g>
        <g transform="matrix(1,0,0,1,1335.77,0)">
            <g transform="matrix(0.558,0,0,0.558,-1201.44,27.8144)">
                <circle cx="2219.53" cy="50.064" r="5.581" style="fill:rgb(248,170,171);"/>
            </g>
        </g>
        <g transform="matrix(1,0,0,1,1335.77,0)">
            <g transform="matrix(0.526842,0,0,0.526842,-1132.45,29.5482)">
                <path d="M2358.69,49.788C2358.69,47.853 2357.12,46.284 2355.19,46.284C2337.64,46.284 2259.48,46.284 2241.93,46.284C2239.99,46.284 2238.43,47.853 2238.43,49.788C2238.43,49.789 2238.43,49.79 2238.43,49.791C2238.43,51.726 2239.99,53.295 2241.93,53.295C2259.48,53.295 2337.64,53.295 2355.19,53.295C2357.12,53.295 2358.69,51.726 2358.69,49.791C2358.69,49.79 2358.69,49.789 2358.69,49.788Z" style="fill:rgb(179,191,197);"/>
            </g>
        </g>
        <g transform="matrix(1,0,0,1,1335.77,0)">
            <g transform="matrix(0.526842,0,0,0.526842,-1389.99,29.5482)">
                <g transform="matrix(0.89561,0.339104,0.385637,-1.01851,1556.52,-714.461)">
                    <path d="M1482.29,-240.928C1482.29,-241.202 1482.16,-241.465 1481.94,-241.659C1481.72,-241.852 1481.42,-241.961 1481.11,-241.961C1475.74,-241.961 1453.53,-241.961 1448.16,-241.961C1447.85,-241.961 1447.55,-241.852 1447.33,-241.659C1447.11,-241.465 1446.98,-241.202 1446.98,-240.928C1446.98,-236.174 1446.98,-216.44 1446.98,-211.686C1446.98,-211.412 1447.11,-211.149 1447.33,-210.955C1447.55,-210.762 1447.85,-210.653 1448.16,-210.653C1453.53,-210.653 1475.74,-210.653 1481.11,-210.653C1481.42,-210.653 1481.72,-210.762 1481.94,-210.955C1482.16,-211.149 1482.29,-211.412 1482.29,-211.686C1482.29,-216.44 1482.29,-236.174 1482.29,-240.928Z" style="fill:white;stroke:rgb(124,139,147);stroke-width:2.22px;stroke-linecap:round;stroke-linejoin:round;"/>
                </g>
                <g id="XMLID_71_" transform="matrix(-0.0866185,0.0217125,-0.0217125,-0.0866185,2809.22,30.0498)">
                    <path d="M264.065,163.81L287.867,212.006L341.064,219.721C348.456,220.793 351.41,229.877 346.063,235.093L307.581,272.623L316.682,325.601C317.947,332.963 310.221,338.579 303.608,335.105L256.022,310.105L208.449,335.131C201.838,338.609 194.11,332.997 195.37,325.634L204.443,272.651L165.941,235.141C160.591,229.929 163.54,220.843 170.932,219.767L224.125,212.023L247.901,163.814C251.206,157.114 260.757,157.112 264.065,163.81Z" style="fill:rgb(254,220,140);fill-rule:nonzero;"/>
                </g>
            </g>
        </g>
        <g transform="matrix(1,0,0,1,1335.77,0)">
            <g transform="matrix(1,0,0,1,-25.1542,-421.738)">
                <circle cx="129.375" cy="451.187" r="2.822" style="fill:rgb(232,235,237);"/>
            </g>
        </g>
    </g>
</svg>
